# xmcd
#
# Track frame offsets: 
#        150
#        16107
#        30097
#        42411
#        56792
#        73510
#        87925
#        104091
#        119841
#        132477
#        149605
#        169668
#        186916
#        195477
#        209214
#
# Disc length: 2984 seconds
#
# Revision: 2
# Processed by: cddbd v1.5.2PL0 Copyright (c) Steve Scherf et al.
# Submitted via: ExactAudioCopy v0.99pb5
#
DISCID=e60ba60f
DTITLE=Sandrine - Dark Fades Into The Light
DYEAR=2006
DGENRE=Pop-Folk
TTITLE0=Let the love
TTITLE1=Love and Paon
TTITLE2=Immortal
TTITLE3=Intertia
TTITLE4=Red shoes
TTITLE5=Don't forget about me
TTITLE6=Prove me wrong
TTITLE7=Save your kisses
TTITLE8=Where do we go
TTITLE9=It's ok
TTITLE10=Eleven
TTITLE11=Deep freeze
TTITLE12=Julietta
TTITLE13=Sea of love
TTITLE14=Late night insomnia
EXTD=YEAR: 2006
EXTT0=
EXTT1=
EXTT2=
EXTT3=
EXTT4=
EXTT5=
EXTT6=
EXTT7=
EXTT8=
EXTT9=
EXTT10=
EXTT11=
EXTT12=
EXTT13=
EXTT14=
PLAYORDER=
